<svg xmlns="http://www.w3.org/2000/svg" version="1.1" xmlns:xlink="http://www.w3.org/1999/xlink" xmlns:svgjs="http://svgjs.dev/svgjs" width="128" height="128" viewBox="0 0 128 128"><g transform="matrix(0.8046875,0,0,0.8046875,12.239687467673768,15.37215763310379)"><svg viewBox="0 0 96 90" data-background-color="#0093fb" preserveAspectRatio="xMidYMid meet" height="120" width="128" xmlns="http://www.w3.org/2000/svg" xmlns:xlink="http://www.w3.org/1999/xlink"><g id="tight-bounds" transform="matrix(1,0,0,1,0.2426213893526068,0.3230375458450112)"><svg viewBox="0 0 95.481 89.35392490830996" height="89.35392490830996" width="95.481"><g><svg viewBox="0 0 95.481 89.35392490830996" height="89.35392490830996" width="95.481"><g><svg viewBox="0 0 95.481 89.35392490830996" height="89.35392490830996" width="95.481"><g id="textblocktransform"><svg viewBox="0 0 95.481 89.35392490830996" height="89.35392490830996" width="95.481" id="textblock"><g><svg viewBox="0 0 95.481 89.35392490830996" height="89.35392490830996" width="95.481"><g><svg viewBox="0 0 95.481 89.35392490830996" height="89.35392490830996" width="95.481"><g><svg xmlns="http://www.w3.org/2000/svg" xmlns:xlink="http://www.w3.org/1999/xlink" version="1.1" x="0" y="0" viewBox="8.00038443385969 10.568 79.99962568331685 74.866" enable-background="new 0 0 96 96" xml:space="preserve" height="89.35392490830996" width="95.481" class="icon-icon-0" data-fill-palette-color="accent" id="icon-0"><path d="M85.965 61.295L85.504 61.248V54.305L84.323 54.205A11 11 0 0 0 83.402 54.168C80.347 54.168 76.351 55.203 72.962 56.652 75.902 54.593 77.832 51.187 77.832 47.334 77.832 41.061 72.728 35.957 66.455 35.957 63.494 35.957 60.623 37.148 58.496 39.241 56.782 37.395 54.392 35.761 51.39 34.365 54.513 31.927 56.533 28.138 56.533 23.879 56.533 16.539 50.562 10.568 43.223 10.568S29.913 16.539 29.913 23.879 35.883 37.19 43.223 37.19C44.578 37.19 45.885 36.983 47.118 36.605A11.5 11.5 0 0 1 41.424 38.125C36.979 38.125 33.008 35.63 31.061 31.615L30.816 31.108 29.014 31.123C28.236 31.253 9.949 34.453 8.533 45.527 7.177 56.13 8.836 70.034 8.853 70.173L8.924 70.769 15.226 72.511 16.963 65.603V75.578H47.405V80.047L48.938 80.01C52.09 80.01 60.402 81.596 64.519 84.188L66.411 85.377V85.434L66.456 85.407 66.5 85.434V85.377L68.392 84.188C72.508 81.596 80.833 80.01 83.986 80.01L85.505 80.039V74.264L86.057 74.102A2.68 2.68 0 0 0 88 71.518V63.897C88 62.691 87.218 61.654 85.965 61.295M58.337 40.866L58.467 40.704 58.47 40.707 58.845 40.301C60.816 38.168 63.59 36.946 66.455 36.946 72.184 36.946 76.845 41.606 76.845 47.335S72.184 57.724 66.455 57.724C64.614 57.724 62.794 57.224 61.193 56.279 58.03 54.41 56.065 50.982 56.065 47.336 56.065 44.998 56.872 42.701 58.337 40.866M43.223 36.201C36.429 36.201 30.901 30.674 30.901 23.879 30.901 17.083 36.429 11.556 43.223 11.556S55.545 17.083 55.545 23.879C55.545 28.009 53.495 31.662 50.369 33.899L50.351 33.891 50.292 33.955A12.24 12.24 0 0 1 43.223 36.201M48 73.148L47.024 73.537A2.095 2.095 0 0 1 45.498 71.517V63.896C45.498 62.968 46.123 62.138 47.018 61.878L48 62.162S50.411 63.31 50.411 63.896V71.517C50.411 71.984 48 73.148 48 73.148M64.714 82.23C60.258 79.798 52.511 78.302 49.193 78.224V73.794C50.264 73.337 51.399 72.597 51.399 71.517V63.896C51.399 62.597 49.694 61.792 48.794 61.46V55.58C51.782 55.357 56.729 56.6 60.707 58.527 62.395 59.375 63.935 60.746 64.715 61.72V82.23zM66.672 60.771L66.456 61.056 66.238 60.771A13 13 0 0 0 63.876 58.41 11.24 11.24 0 0 0 69.935 58.16C68.497 59.002 67.334 59.896 66.672 60.771M83.718 78.227C80.38 78.311 72.644 79.805 68.197 82.231V61.723C70.444 58.993 78.895 55.825 83.718 55.959V61.299C82.662 61.731 81.221 62.563 81.221 63.897V71.518C81.221 72.846 82.663 73.678 83.718 74.112zM87.013 71.518C87.013 72.28 86.517 72.936 85.779 73.153L84.707 73.466 84.382 73.31C83.331 72.927 82.21 72.255 82.21 71.519V63.898C82.21 63.156 83.331 62.484 84.382 62.103L84.518 62.054V62.14L85.777 62.261A1.7 1.7 0 0 1 87.014 63.898z" fill="#002f81" data-fill-palette-color="accent"></path></svg></g></svg></g></svg></g></svg></g></svg></g></svg></g><defs></defs></svg><rect width="95.481" height="89.35392490830996" fill="none" stroke="none" visibility="hidden"></rect></g></svg></g></svg>